# xmcd CD database file
#
# Track frame offsets:
#	150
#	15320
#	29339
#	46355
#	58264
#	74722
#	93180
#	105692
#	122983
#	138830
#	153825
#	174878
#
# Disc length: 2520 seconds
#
# Revision: 0
# Processed by: cddbd v1.5.1PL0 Copyright (c) Steve Scherf et al.
# Submitted via: CDex 1.51
#
DISCID=9a09d60c
DTITLE=Paul Costa  - Walkin In These Shoes
DYEAR=2004
DGENRE=Country
TTITLE0=Paul Costa - Incommunicado
TTITLE1=Paul Costa - When The Right One Comes Along
TTITLE2=Paul Costa - Why Do I
TTITLE3=Paul Costa - I Think I Like It
TTITLE4=Paul Costa - When It's Love
TTITLE5=Paul Costa - House Of Mirrors
TTITLE6=Paul Costa - Memory Maker You
TTITLE7=Paul Costa - Stoneage Romeo
TTITLE8=Paul Costa - When My Lips Are Sealed
TTITLE9=Paul Costa - It's Good To Be Me
TTITLE10=Paul Costa - I'm Just A Man
TTITLE11=Paul Costa - What Else Could Go Right
EXTD=YEAR: 2004
EXTT0=
EXTT1=
EXTT2=
EXTT3=
EXTT4=
EXTT5=
EXTT6=
EXTT7=
EXTT8=
EXTT9=
EXTT10=
EXTT11=
PLAYORDER=
